<svg width="15" height="15" viewBox="0 0 15 15" fill="none" xmlns="http://www.w3.org/2000/svg">
<path fill-rule="evenodd" clip-rule="evenodd" d="M7.50072 0.833359C5.69015 0.833359 5.46291 0.841275 4.75182 0.873619C4.04208 0.906119 3.5576 1.01846 3.13375 1.18336C2.69526 1.35362 2.32333 1.58138 1.95276 1.95211C1.58192 2.32263 1.35411 2.69461 1.18328 3.13294C1.01802 3.55695 0.905518 4.04154 0.873591 4.75101C0.841768 5.46211 0.833435 5.6895 0.833435 7.50008C0.833435 9.31065 0.841508 9.53716 0.873696 10.2483C0.906352 10.958 1.0187 11.4425 1.18343 11.8664C1.35385 12.3048 1.58161 12.6768 1.95234 13.0474C2.32276 13.4182 2.69468 13.6465 3.13291 13.8168C3.55708 13.9816 4.04166 14.094 4.75125 14.1265C5.46239 14.1589 5.68948 14.1668 7.49989 14.1668C9.31062 14.1668 9.53713 14.1589 10.2482 14.1265C10.958 14.094 11.443 13.9816 11.8671 13.8168C12.3055 13.6465 12.6769 13.4182 13.0473 13.0474C13.4181 12.6768 13.6459 12.3048 13.8168 11.8665C13.9807 11.4425 14.0932 10.9579 14.1265 10.2484C14.1584 9.53732 14.1668 9.31065 14.1668 7.50008C14.1668 5.6895 14.1584 5.46226 14.1265 4.75117C14.0932 4.04143 13.9807 3.55695 13.8168 3.1331C13.6459 2.69461 13.4181 2.32263 13.0473 1.95211C12.6765 1.58128 12.3056 1.35346 11.8667 1.18336C11.4417 1.01846 10.957 0.906119 10.2473 0.873619C9.53614 0.841275 9.30979 0.833359 7.49864 0.833359H7.50072ZM7.27838 2.03466H7.27854L7.50072 2.03471C9.28072 2.03471 9.49171 2.04112 10.1946 2.07305C10.8446 2.10279 11.1974 2.21138 11.4324 2.30263C11.7435 2.42346 11.9654 2.56794 12.1985 2.80128C12.4319 3.03461 12.5763 3.25685 12.6974 3.56794C12.7887 3.80268 12.8974 4.15544 12.927 4.80544C12.959 5.50825 12.9659 5.71935 12.9659 7.49857C12.9659 9.27773 12.959 9.48883 12.927 10.1916C12.8973 10.8416 12.7887 11.1944 12.6974 11.4291C12.5766 11.7402 12.4319 11.9618 12.1985 12.195C11.9652 12.4283 11.7437 12.5728 11.4324 12.6936C11.1977 12.7853 10.8446 12.8936 10.1946 12.9233C9.49187 12.9553 9.28072 12.9622 7.50072 12.9622C5.72057 12.9622 5.50958 12.9553 4.80682 12.9233C4.15682 12.8933 3.80401 12.7847 3.5689 12.6935C3.25776 12.5726 3.03552 12.4281 2.80218 12.1948C2.56885 11.9615 2.42442 11.7398 2.30333 11.4286C2.21208 11.1939 2.10333 10.8411 2.07375 10.1911C2.04177 9.48831 2.03541 9.27716 2.03541 7.4969C2.03541 5.71659 2.04177 5.50659 2.07375 4.80378C2.10343 4.15378 2.21208 3.80101 2.30333 3.56601C2.42416 3.25487 2.56885 3.03268 2.80218 2.79935C3.03552 2.56601 3.25776 2.42154 3.5689 2.30044C3.8039 2.20878 4.15682 2.10044 4.80682 2.07055C5.42182 2.04279 5.66015 2.03445 6.90265 2.03305V2.03471C7.01875 2.03456 7.14364 2.03461 7.27838 2.03466ZM10.2594 3.94143C10.2594 3.49961 10.6177 3.14169 11.0594 3.14169V3.14143C11.501 3.14143 11.8594 3.49976 11.8594 3.94143C11.8594 4.3831 11.501 4.74143 11.0594 4.74143C10.6177 4.74143 10.2594 4.3831 10.2594 3.94143ZM7.50057 4.07643C5.60994 4.07648 4.07708 5.6094 4.07708 7.50008C4.07708 9.39081 5.61 10.923 7.50072 10.923C9.39145 10.923 10.9238 9.39081 10.9238 7.50008C10.9238 5.60935 9.3913 4.07643 7.50057 4.07643ZM9.72297 7.50008C9.72297 6.27268 8.72796 5.27784 7.50072 5.27784C6.27333 5.27784 5.27849 6.27268 5.27849 7.50008C5.27849 8.72732 6.27333 9.72231 7.50072 9.72231C8.72796 9.72231 9.72297 8.72732 9.72297 7.50008Z" fill="white"/>
</svg>
