<svg width="15" height="13" viewBox="0 0 15 13" fill="none" xmlns="http://www.w3.org/2000/svg">
<path fill-rule="evenodd" clip-rule="evenodd" d="M4.02031 1.72016C4.02031 2.5374 3.4051 3.1913 2.41739 3.1913H2.39927C1.44828 3.1913 0.833435 2.5374 0.833435 1.72016C0.833435 0.885625 1.46698 0.25 2.43604 0.25C3.4051 0.25 4.00192 0.885625 4.02031 1.72016ZM3.83369 4.35302V12.8644H1.00094V4.35302H3.83369ZM14.0497 12.8644L14.0498 7.98422C14.0498 5.36995 12.6523 4.15318 10.7882 4.15318C9.28416 4.15318 8.61078 4.97927 8.23484 5.5588V4.35328H5.40172C5.43906 5.15193 5.40172 12.8646 5.40172 12.8646H8.23484V8.11115C8.23484 7.85677 8.25323 7.60302 8.32812 7.42089C8.53286 6.91271 8.99901 6.38656 9.78161 6.38656C10.8071 6.38656 11.217 7.16703 11.217 8.31078V12.8644H14.0497Z" fill="white"/>
</svg>
